<svg width="192" height="192" viewBox="0 0 192 192" fill="none" xmlns="http://www.w3.org/2000/svg">
  <defs>
    <linearGradient id="bgGrad" x1="0%" y1="0%" x2="100%" y2="100%">
      <stop offset="0%" style="stop-color:#1e1b4b;stop-opacity:1" />
      <stop offset="100%" style="stop-color:#0f172a;stop-opacity:1" />
    </linearGradient>
    <linearGradient id="moonGrad" x1="0%" y1="0%" x2="100%" y2="100%">
      <stop offset="0%" style="stop-color:#fbbf24;stop-opacity:1" />
      <stop offset="100%" style="stop-color:#f97316;stop-opacity:1" />
    </linearGradient>
  </defs>
  <rect width="192" height="192" rx="48" fill="url(#bgGrad)"/>
  <path d="M120 60C100 60 84 76 84 96C84 116 100 132 120 132C130 132 139 128 146 121C132 137 110 138 98 126C86 114 85 92 97 80C104 73 113 68 120 68V60Z" fill="url(#moonGrad)"/>
  <circle cx="55" cy="50" r="2" fill="white" opacity="0.8"/>
  <circle cx="45" cy="75" r="1.5" fill="white" opacity="0.6"/>
  <circle cx="65" cy="90" r="1.8" fill="white" opacity="0.7"/>
  <circle cx="35" cy="110" r="1.2" fill="white" opacity="0.5"/>
  <circle cx="50" cy="130" r="2" fill="white" opacity="0.6"/>
</svg>
